<svg width="1400" height="820" viewBox="0 0 1400 820" fill="none" xmlns="http://www.w3.org/2000/svg">
  <defs>
    <linearGradient id="bg" x1="0" y1="0" x2="1400" y2="820" gradientUnits="userSpaceOnUse">
      <stop stop-color="#090A12"/>
      <stop offset="1" stop-color="#101321"/>
    </linearGradient>
    <linearGradient id="panel" x1="0" y1="0" x2="0" y2="1">
      <stop stop-color="#111522"/>
      <stop offset="1" stop-color="#0D1019"/>
    </linearGradient>
    <linearGradient id="accent" x1="0" y1="0" x2="1" y2="1">
      <stop stop-color="#7C3AED"/>
      <stop offset="1" stop-color="#EF4444"/>
    </linearGradient>
    <filter id="soft" x="-20%" y="-20%" width="140%" height="140%">
      <feDropShadow dx="0" dy="24" stdDeviation="32" flood-color="#000000" flood-opacity="0.35"/>
    </filter>
    <style>
      .sans { font-family: Inter, ui-sans-serif, system-ui, -apple-system, BlinkMacSystemFont, "Segoe UI", sans-serif; }
      .mono { font-family: "JetBrains Mono", ui-monospace, SFMono-Regular, Menlo, monospace; }
    </style>
  </defs>

  <rect width="1400" height="820" rx="0" fill="url(#bg)"/>
  <circle cx="1210" cy="120" r="220" fill="#7C3AED" opacity="0.12"/>
  <circle cx="220" cy="700" r="240" fill="#EF4444" opacity="0.08"/>

  <g filter="url(#soft)">
    <rect x="72" y="66" width="1256" height="688" rx="28" fill="#0B0E16" stroke="#20263A"/>
  </g>

  <rect x="72" y="66" width="1256" height="74" rx="28" fill="#0F1320"/>
  <circle cx="114" cy="103" r="8" fill="#FF5F57"/>
  <circle cx="138" cy="103" r="8" fill="#FEBC2E"/>
  <circle cx="162" cy="103" r="8" fill="#28C840"/>
  <rect x="1062" y="84" width="126" height="38" rx="12" fill="#141A29" stroke="#2B334A"/>
  <text x="1125" y="108" text-anchor="middle" fill="#CBD5E1" class="sans" font-size="18" font-weight="600">GitHub</text>
  <rect x="1202" y="84" width="94" height="38" rx="12" fill="#141A29" stroke="#2B334A"/>
  <text x="1249" y="108" text-anchor="middle" fill="#CBD5E1" class="sans" font-size="18" font-weight="600">Docs</text>

  <g transform="translate(116 180)">
    <rect width="76" height="76" rx="22" fill="#EF4444"/>
    <path d="M38 18L56 27V40C56 54 48 66 38 71C28 66 20 54 20 40V27L38 18Z" fill="#F8FAFC"/>
  </g>
  <text x="216" y="230" fill="#F8FAFC" class="sans" font-size="66" font-weight="800">CERBERUS CORE</text>
  <text x="216" y="276" fill="#94A3B8" class="sans" font-size="28" font-weight="600" letter-spacing="6">AGENTIC AI RUNTIME SECURITY</text>
  <rect x="116" y="312" width="430" height="2" fill="#232A3E"/>
  <text x="116" y="364" fill="#CBD5E1" class="sans" font-size="34" font-weight="500">Detect • Correlate • Interrupt</text>
  <text x="116" y="410" fill="#94A3B8" class="sans" font-size="26">before sensitive data leaves your system</text>

  <rect x="116" y="470" width="304" height="56" rx="14" fill="#0F1320" stroke="#2B334A"/>
  <text x="146" y="505" fill="#A78BFA" class="mono" font-size="24" font-weight="500">npm install @cerberus-ai/core</text>
  <rect x="440" y="470" width="164" height="56" rx="14" fill="#111827" stroke="#2B334A"/>
  <text x="522" y="505" text-anchor="middle" fill="#E2E8F0" class="sans" font-size="22" font-weight="700">MIT Licensed</text>

  <rect x="798" y="184" width="212" height="86" rx="18" fill="#0F1320" stroke="#2B334A"/>
  <text x="828" y="222" fill="#94A3B8" class="mono" font-size="20">readDatabase()</text>
  <text x="828" y="252" fill="#FBBF24" class="sans" font-size="24" font-weight="700">PII accessed</text>
  <rect x="1016" y="204" width="54" height="44" rx="12" fill="#251E10" stroke="#6B4F13"/>
  <text x="1043" y="232" text-anchor="middle" fill="#FBBF24" class="sans" font-size="20" font-weight="700">L1</text>

  <rect x="798" y="302" width="212" height="86" rx="18" fill="#0F1320" stroke="#2B334A"/>
  <text x="828" y="340" fill="#94A3B8" class="mono" font-size="20">fetchWebpage()</text>
  <text x="828" y="370" fill="#FB7185" class="sans" font-size="24" font-weight="700">injection found</text>
  <rect x="1016" y="322" width="54" height="44" rx="12" fill="#2A160E" stroke="#7C2D12"/>
  <text x="1043" y="350" text-anchor="middle" fill="#FB7185" class="sans" font-size="20" font-weight="700">L2</text>

  <rect x="798" y="420" width="212" height="86" rx="18" fill="#0F1320" stroke="#EF4444"/>
  <text x="828" y="458" fill="#94A3B8" class="mono" font-size="20">sendEmail()</text>
  <text x="828" y="488" fill="#F87171" class="sans" font-size="24" font-weight="700">exfiltration risk</text>
  <rect x="1016" y="440" width="54" height="44" rx="12" fill="#321214" stroke="#7F1D1D"/>
  <text x="1043" y="468" text-anchor="middle" fill="#F87171" class="sans" font-size="20" font-weight="700">L3</text>

  <path d="M1010 463H1132" stroke="#EF4444" stroke-width="4" stroke-linecap="round"/>
  <path d="M1124 455L1140 463L1124 471" stroke="#EF4444" stroke-width="4" stroke-linecap="round" stroke-linejoin="round"/>

  <text x="1182" y="240" text-anchor="middle" fill="#F8FAFC" class="sans" font-size="74" font-weight="800">3</text>
  <text x="1182" y="282" text-anchor="middle" fill="#94A3B8" class="sans" font-size="24">/4 risk score</text>
  <text x="1182" y="338" text-anchor="middle" fill="#10B981" class="mono" font-size="24" font-weight="700">INTERRUPT</text>

  <rect x="1110" y="452" width="150" height="74" rx="18" fill="#2A1115" stroke="#7F1D1D"/>
  <text x="1185" y="484" text-anchor="middle" fill="#FCA5A5" class="sans" font-size="18" font-weight="700">guard()</text>
  <text x="1185" y="513" text-anchor="middle" fill="#EF4444" class="sans" font-size="28" font-weight="800">BLOCKED</text>

  <rect x="116" y="600" width="1144" height="92" rx="20" fill="#0F1320" stroke="#232A3E"/>
  <text x="152" y="638" fill="#C4B5FD" class="sans" font-size="20" font-weight="700">Fresh runtime proof</text>
  <text x="152" y="671" fill="#E2E8F0" class="sans" font-size="22">OpenAI attack 89.1% • Google attack 85.5% • 919 TypeScript tests passing • 138 Python tests passing</text>
  <text x="152" y="701" fill="#94A3B8" class="sans" font-size="18">The public Core repo now ships the SDK, demo, and release workflow from the same source of truth.</text>
</svg>
