<svg width="1400" height="1080" viewBox="0 0 1400 1080" fill="none" xmlns="http://www.w3.org/2000/svg">
  <defs>
    <linearGradient id="bg" x1="0" y1="0" x2="1400" y2="1080" gradientUnits="userSpaceOnUse">
      <stop stop-color="#0B0C14"/>
      <stop offset="1" stop-color="#131625"/>
    </linearGradient>
    <filter id="shadow" x="-20%" y="-20%" width="140%" height="140%">
      <feDropShadow dx="0" dy="20" stdDeviation="26" flood-color="#000000" flood-opacity="0.28"/>
    </filter>
    <style>
      .sans { font-family: Inter, ui-sans-serif, system-ui, -apple-system, BlinkMacSystemFont, "Segoe UI", sans-serif; }
      .mono { font-family: "JetBrains Mono", ui-monospace, SFMono-Regular, Menlo, monospace; }
    </style>
  </defs>
  <rect width="1400" height="1080" fill="url(#bg)"/>
  <g filter="url(#shadow)">
    <rect x="56" y="56" width="1288" height="968" rx="28" fill="#0D111B" stroke="#20263A"/>
  </g>

  <rect x="56" y="56" width="1288" height="78" rx="28" fill="#111522"/>
  <text x="96" y="103" fill="#F8FAFC" class="sans" font-size="34" font-weight="800">Cerberus Core Demo</text>
  <rect x="274" y="80" width="118" height="34" rx="10" fill="#2A1B49" stroke="#7C3AED"/>
  <text x="333" y="102" text-anchor="middle" fill="#C4B5FD" class="sans" font-size="18" font-weight="700">Live Proof</text>

  <text x="92" y="188" fill="#64748B" class="sans" font-size="18" font-weight="700" letter-spacing="2">CHOOSE AN ATTACK SCENARIO</text>
  <rect x="92" y="214" width="864" height="54" rx="14" fill="#171B2A" stroke="#2A3146"/>
  <text x="118" y="247" fill="#F8FAFC" class="sans" font-size="24" font-weight="600">Financial reporting exfiltration</text>
  <rect x="970" y="214" width="150" height="54" rx="14" fill="#7C3AED"/>
  <text x="1045" y="247" text-anchor="middle" fill="#FFFFFF" class="sans" font-size="22" font-weight="700">Run Attack</text>
  <rect x="1134" y="214" width="94" height="54" rx="14" fill="#171B2A" stroke="#2A3146"/>
  <text x="1181" y="247" text-anchor="middle" fill="#CBD5E1" class="sans" font-size="22" font-weight="600">Reset</text>

  <rect x="92" y="286" width="1136" height="62" rx="14" fill="#2A1115" stroke="#7F1D1D"/>
  <text x="660" y="326" text-anchor="middle" fill="#F87171" class="sans" font-size="28" font-weight="800">Run complete — threat blocked before outbound execution</text>

  <rect x="92" y="380" width="820" height="190" rx="18" fill="#111522" stroke="#262F45"/>
  <rect x="112" y="400" width="130" height="40" rx="12" fill="#143225"/>
  <text x="177" y="427" text-anchor="middle" fill="#34D399" class="sans" font-size="20" font-weight="700">L1 Private Data</text>
  <text x="112" y="476" fill="#F8FAFC" class="sans" font-size="34" font-weight="700">Read internal Q4 finance summary</text>
  <text x="112" y="520" fill="#94A3B8" class="mono" font-size="24">readFinancialSummary()</text>
  <rect x="112" y="544" width="164" height="42" rx="12" fill="#182230"/>
  <text x="194" y="571" text-anchor="middle" fill="#34D399" class="sans" font-size="22" font-weight="700">Low Risk 1/4</text>
  <text x="308" y="572" fill="#CBD5E1" class="sans" font-size="22" font-weight="700">NONE</text>

  <rect x="92" y="592" width="820" height="260" rx="18" fill="#111522" stroke="#EF4444"/>
  <rect x="112" y="614" width="162" height="40" rx="12" fill="#34161A"/>
  <text x="193" y="641" text-anchor="middle" fill="#F87171" class="sans" font-size="20" font-weight="700">L3 Outbound Action</text>
  <rect x="724" y="614" width="150" height="40" rx="12" fill="#7F1D1D"/>
  <text x="799" y="641" text-anchor="middle" fill="#FECACA" class="sans" font-size="20" font-weight="800">BLOCKED</text>
  <text x="112" y="694" fill="#F8FAFC" class="sans" font-size="34" font-weight="700">Send report to external auditor</text>
  <text x="112" y="738" fill="#94A3B8" class="mono" font-size="24">sendEmail()</text>
  <rect x="112" y="762" width="198" height="42" rx="12" fill="#34161A"/>
  <text x="211" y="789" text-anchor="middle" fill="#F87171" class="sans" font-size="22" font-weight="700">Critical Risk 3/4</text>
  <text x="340" y="790" fill="#FCA5A5" class="sans" font-size="22" font-weight="800">INTERRUPT</text>
  <text x="112" y="824" fill="#FCA5A5" class="sans" font-size="22" font-weight="600">customer balances, emails, and SSNs matched structured session entities</text>

  <rect x="954" y="180" width="322" height="196" rx="20" fill="#111522" stroke="#262F45"/>
  <text x="978" y="216" fill="#64748B" class="sans" font-size="18" font-weight="700" letter-spacing="2">WHAT CERBERUS IS WATCHING</text>
  <rect x="978" y="238" width="132" height="72" rx="14" fill="#123026" stroke="#1C6F58"/>
  <text x="994" y="270" fill="#34D399" class="sans" font-size="24" font-weight="800">Private Data</text>
  <text x="994" y="296" fill="#94A3B8" class="sans" font-size="18">financial records and PII</text>
  <rect x="1126" y="238" width="126" height="72" rx="14" fill="#311F12" stroke="#7C4A12"/>
  <text x="1142" y="270" fill="#FBBF24" class="sans" font-size="24" font-weight="800">Injection</text>
  <text x="1142" y="296" fill="#94A3B8" class="sans" font-size="18">hidden outbound prompt</text>
  <rect x="978" y="322" width="132" height="72" rx="14" fill="#34161A" stroke="#7F1D1D"/>
  <text x="994" y="354" fill="#F87171" class="sans" font-size="24" font-weight="800">Outbound</text>
  <text x="994" y="380" fill="#94A3B8" class="sans" font-size="18">external email action</text>
  <rect x="1126" y="322" width="126" height="72" rx="14" fill="#26173B" stroke="#7C3AED"/>
  <text x="1142" y="354" fill="#C4B5FD" class="sans" font-size="24" font-weight="800">Memory</text>
  <text x="1142" y="380" fill="#94A3B8" class="sans" font-size="18">future chain tracking</text>

  <rect x="954" y="406" width="322" height="132" rx="20" fill="#111522" stroke="#262F45"/>
  <text x="980" y="444" fill="#F8FAFC" class="sans" font-size="74" font-weight="800">3</text>
  <text x="1048" y="448" fill="#94A3B8" class="sans" font-size="26">/4 risk score</text>
  <rect x="980" y="478" width="204" height="18" rx="9" fill="#1A2031"/>
  <rect x="980" y="478" width="152" height="18" rx="9" fill="#10B981"/>
  <rect x="1178" y="456" width="74" height="44" rx="12" fill="#34161A"/>
  <text x="1215" y="485" text-anchor="middle" fill="#F87171" class="sans" font-size="20" font-weight="800">BLOCK</text>

  <rect x="954" y="566" width="322" height="286" rx="20" fill="#111522" stroke="#262F45"/>
  <text x="978" y="602" fill="#64748B" class="sans" font-size="18" font-weight="700" letter-spacing="2">INCIDENT INTELLIGENCE</text>
  <rect x="978" y="622" width="274" height="96" rx="14" fill="#191D2C" stroke="#7C3AED"/>
  <text x="996" y="656" fill="#F8FAFC" class="sans" font-size="24" font-weight="700">Cerberus interrupted an outbound report</text>
  <text x="996" y="688" fill="#CBD5E1" class="sans" font-size="20">after correlating trusted finance data, untrusted instructions,</text>
  <text x="996" y="714" fill="#CBD5E1" class="sans" font-size="20">and an external email destination.</text>
  <text x="978" y="756" fill="#34D399" class="sans" font-size="22" font-weight="700">• Sensitive financial records entered the agent context</text>
  <text x="978" y="792" fill="#FBBF24" class="sans" font-size="22" font-weight="700">• Untrusted reporting guidance attempted to redirect output</text>
  <text x="978" y="828" fill="#F87171" class="sans" font-size="22" font-weight="700">• Guarded outbound tool was blocked before execution</text>

  <rect x="92" y="892" width="1184" height="86" rx="18" fill="#0F1320" stroke="#262F45"/>
  <text x="122" y="930" fill="#C4B5FD" class="sans" font-size="20" font-weight="700">Proof path</text>
  <text x="122" y="962" fill="#E2E8F0" class="sans" font-size="22">Hosted demo → blocked runtime action → dashboard / docs → installable Core package from the same public repo.</text>
</svg>
